<?xml version="1.0" encoding="utf-8"?>
<!-- Generator: Adobe Illustrator 24.3.0, SVG Export Plug-In . SVG Version: 6.00 Build 0)  -->
<svg version="1.0" id="katman_1" xmlns="http://www.w3.org/2000/svg" xmlns:xlink="http://www.w3.org/1999/xlink" x="0px" y="0px"
	 viewBox="0 0 841.89 595.28" style="enable-background:new 0 0 841.89 595.28;" xml:space="preserve">
<style type="text/css">
	.st0{fill:#002EFF;}
</style>
<g>
	<path class="st0" d="M416.02,177.63c-90.06,0-162.43,72.37-162.43,162.43s73.17,162.43,162.43,162.43s162.43-73.17,162.43-162.43
		S505.27,177.63,416.02,177.63z M422.45,488.01v-33.77h-13.67v33.77c-76.39-3.22-137.5-65.13-140.72-140.72h33.77v-13.67h-33.77
		c3.22-76.39,65.13-137.5,140.72-140.72v32.97h13.67V192.1c78.8,4.02,141.52,68.35,141.52,147.95S501.25,483.98,422.45,488.01z"/>
	<path class="st0" d="M596.94,209.79c4.82,4.82,12.06,4.82,16.89,0l13.67-13.67c4.82-4.82,4.82-12.06,0-16.89l-39.4-39.4
		c-4.82-4.82-12.06-4.82-16.89,0l-12.87,13.67c-4.82,4.82-4.82,12.06,0,16.89l5.63,5.63l-12.06,12.06
		c-28.14-24.93-63.52-42.62-102.92-49.05v-30.56h9.65c8.84,0,16.08-7.24,16.08-16.08V69.08c0-8.84-7.24-16.08-16.08-16.08H373.4
		c-8.84,0-16.08,7.24-16.08,16.08v22.51c0,8.84,7.24,16.08,16.08,16.08h9.65v30.56c-28.14,4.82-54.68,15.28-78,30.56l-17.69-17.69
		c-6.43-6.43-17.69-6.43-24.93,0l-24.93,24.93c-3.22,3.22-4.82,8.04-4.82,12.06c0,4.02,1.61,8.84,4.82,12.06l15.28,15.28
		c-25.73,34.58-41.81,77.19-41.81,123.03c0,112.57,91.67,203.43,203.43,203.43s203.43-91.67,203.43-203.43
		c0-45.83-15.28-88.45-41.01-122.22l12.87-12.87L596.94,209.79z M373.4,94.81c-1.61,0-2.41-0.8-2.41-2.41V69.08
		c0-1.61,0.8-2.41,2.41-2.41h85.23c1.61,0,2.41,0.8,2.41,2.41v22.51c0,1.61-0.8,2.41-2.41,2.41h-9.65h-65.94h-9.65V94.81z
		 M396.72,108.48h37.79v28.14c-6.43-0.8-12.87-0.8-19.3-0.8c-6.43,0-12.87,0-19.3,0.8v-28.14H396.72z M261.63,205.77l-14.47-14.47
		c-0.8-0.8-0.8-1.61-0.8-2.41c0-0.8,0-1.61,0.8-2.41l24.93-24.93c0.8-0.8,1.61-0.8,2.41-0.8s1.61,0,2.41,0.8l14.47,14.47
		l-18.49,18.49c-0.8,0.8-2.41,2.41-3.22,3.22L261.63,205.77z M416.02,529.82c-104.53,0-189.76-85.23-189.76-189.76
		c0-51.46,20.91-98.1,53.87-132.67l3.22-3.22c34.58-32.97,81.21-53.87,132.67-53.87c104.53,0,189.76,85.23,189.76,189.76
		S520.55,529.82,416.02,529.82z M561.56,197.73l21.71-21.71l-13.67-13.67l11.26-11.26l36.18,36.18l-11.26,11.26l-13.67-13.67
		l-21.71,21.71C567.19,203.36,563.97,200.14,561.56,197.73z"/>
	<path class="st0" d="M502.86,270.9c4.02,4.82,7.24,9.65,10.45,15.28l12.06-6.43c-3.22-5.63-7.24-12.06-11.26-16.89L502.86,270.9z"
		/>
	<path class="st0" d="M524.57,321.56l13.67-2.41c-0.8-6.43-3.22-13.67-4.82-20.1l-12.87,4.82
		C522.16,309.5,523.77,315.13,524.57,321.56z"/>
	<path class="st0" d="M513.31,392.32l12.06,6.43c3.22-6.43,6.43-12.06,8.04-19.3l-12.87-4.82
		C518.94,381.06,515.73,386.69,513.31,392.32z"/>
	<path class="st0" d="M465.07,225.07c-5.63-2.41-10.45-4.02-16.08-5.63l-4.02,13.67c4.82,1.61,9.65,3.22,14.47,4.82L465.07,225.07z"
		/>
	<path class="st0" d="M525.38,357.74l13.67,2.41c0.8-6.43,1.61-13.67,1.61-20.91h-13.67C526.18,345.68,526.18,352.11,525.38,357.74z
		"/>
	<path class="st0" d="M499.64,247.58c-4.82-4.82-10.45-8.84-16.08-12.87l-7.24,12.06c4.82,3.22,9.65,7.24,14.47,11.26L499.64,247.58
		z"/>
	<path class="st0" d="M441.75,356.13c3.22-4.82,4.82-10.45,4.82-16.89c0-17.69-14.47-31.36-31.36-31.36
		c-17.69,0-31.36,14.47-31.36,31.36c0,16.89,14.47,31.36,31.36,31.36c6.43,0,12.06-1.61,16.89-4.82l64.33,64.33
		c1.61,1.61,3.22,2.41,4.82,2.41s3.22-0.8,4.82-2.41c2.41-2.41,2.41-7.24,0-9.65L441.75,356.13z M397.53,340.05
		c0-9.65,8.04-17.69,17.69-17.69s17.69,8.04,17.69,17.69s-8.04,17.69-17.69,17.69S397.53,349.7,397.53,340.05z"/>
</g>
</svg>
